<?xml version="1.0" encoding="UTF-8"?>
<svg id="Layer_2" data-name="Layer 2" xmlns="http://www.w3.org/2000/svg" viewBox="0 0 284.3 178.7">
  <defs>
    <style>
      .cls-1 {
        fill: #fff;
        stroke: #231f20;
        stroke-miterlimit: 10;
        stroke-width: 5px;
      }
    </style>
  </defs>
  <g id="Layer_1-2" data-name="Layer 1">
    <path class="cls-1" d="M146.2,109.4v22.2h135.6v44.6H101.2v-84.3s.1-6.1,3.1-12c3.7-7.4,10-10.8,19.8-10.8h157.7v40.2h-135.6v.1Z"/>
    <path class="cls-1" d="M110.8,61l-23.2,8.3c-8.7,3.1-15.5,9.9-18.6,18.6l-8.3,23.2c-1,2.8-5,2.8-6,0l-8.3-23.2c-3.1-8.7-9.9-15.5-18.6-18.6l-23.2-8.3c-2.8-1-2.8-5,0-6l23.2-8.3c8.7-3.1,15.5-9.9,18.6-18.6l8.3-23.2c1-2.8,5-2.8,6,0l8.3,23.2c3.1,8.7,9.9,15.5,18.6,18.6l23.2,8.3c2.8,1,2.8,5,0,6Z"/>
    <path class="cls-1" d="M281.8,2.4v44.5H124c-9.6,0-15.8-3.3-19.5-10.3-3.2-6-3.3-12.5-3.3-12.5V2.5h180.6v-.1Z"/>
  </g>
</svg>