<?xml version="1.0" encoding="UTF-8"?>
<svg id="Layer_2" data-name="Layer 2" xmlns="http://www.w3.org/2000/svg" viewBox="0 0 279.3 173.8">
  <g id="Layer_1-2" data-name="Layer 1">
    <path d="M143.7,107v22.2h135.6v44.6H98.7v-84.3s.1-6.1,3.1-12c3.7-7.4,10-10.8,19.8-10.8h157.7v40.2h-135.6v.1Z"/>
    <path d="M108.3,58.6l-23.2,8.3c-8.7,3.1-15.5,9.9-18.6,18.6l-8.3,23.2c-1,2.8-5,2.8-6,0l-8.3-23.2c-3.1-8.7-9.9-15.5-18.6-18.6L2.1,58.6c-2.8-1-2.8-5,0-6l23.2-8.3c8.7-3.1,15.5-9.9,18.6-18.6L52.2,2.5c1-2.8,5-2.8,6,0l8.3,23.2c3.1,8.7,9.9,15.5,18.6,18.6l23.2,8.3c2.8,1,2.8,5,0,6Z"/>
    <path d="M279.3,0v44.5H121.5c-9.6,0-15.8-3.3-19.5-10.3-3.2-6-3.3-12.5-3.3-12.5V.1h180.6v-.1Z"/>
  </g>
</svg>